# xmcd
#
# Track frame offsets:
#	150
#	22906
#	39721
#	66341
#	80868
#	105681
#	132070
#	156703
#	179503
#	206219
#
# Disc length: 3060 seconds
#
# Revision: 1
# Processed by: cddbd v1.5.2PL0 Copyright (c) Steve Scherf et al.
# Submitted via: EZCDAudioConverter 8.0.2.1
#
DISCID=940bf20a
DTITLE=Various Artist - st. Phạm Thế Mỹ 
DYEAR=2009
DGENRE=
TTITLE0=Như Quỳnh - Nắng lên xóm nghèo
TTITLE1=Hoài Nam - Chuyến tàu về quê ngoại
TTITLE2=Phương Hồng Quế - Trăng tàn trên hè phố
TTITLE3=Tuấn Vũ - Thương quá Việt Nam
TTITLE4=Thái Châu - Bông hồng cài áo
TTITLE5=Hoàng Oanh, Trung Chỉnh - Đường về hai thôn
TTITLE6=Trường Vũ - Những ngày xưa thân ái
TTITLE7=Quỳnh Dung - Đan áo mùa xuân
TTITLE8=Duy Khánh - Người yêu và con chim sâu nhỏ
TTITLE9=Mạnh QUỳnh - Bến duyên lành
EXTD=
EXTT0=
EXTT1=
EXTT2=
EXTT3=
EXTT4=
EXTT5=
EXTT6=
EXTT7=
EXTT8=
EXTT9=
PLAYORDER=
